%
M48
M72
T01C0.01200
T02C0.03346
T03C0.04000
T04C0.04331
T05C0.09843
%
T01
X117648Y6245
X132648Y14745
X140494Y14745
X156148Y14745
X224148Y16245
X232648Y16245
X232648Y38745
X227648Y38745
X232648Y49899
X232648Y56592
X221148Y69745
X164348Y62345
X107348Y73245
X100448Y58845
X100448Y46845
T02
X92648Y11245
T03
X112648Y13745
X113648Y23745
X112648Y33745
X113648Y43745
X112648Y53745
X113648Y63745
T04
X70148Y47604
X70148Y29887
T05
X70148Y16304
X70148Y61186
M30
